<svg xmlns="http://www.w3.org/2000/svg" viewBox="0 0 256 262">
  <path fill="#4285F4" d="M255.2 131.1c0-10.3-.8-20.5-2.5-30.5H130v57.7h70.4c-3 16.5-12.1 30.6-25.8 40v33h41.7c24.4-22.5 38.4-55.6 38.4-100.2z"/>
  <path fill="#34A853" d="M130 262c35 0 64.4-11.6 85.9-31.6l-41.7-33c-11.6 7.8-26.4 12.8-44.2 12.8-34 0-62.8-22.9-73.1-53.8H13.9v33.8C35.6 231.9 80.8 262 130 262z"/>
  <path fill="#FBBC05" d="M56.9 155.4c-2.7-8-4.2-16.6-4.2-25.4s1.5-17.4 4.2-25.4V70.8H13.9C5 88.2 0 108.1 0 129.9c0 21.8 5 41.7 13.9 59.1l43-33.6z"/>
  <path fill="#EA4335" d="M130 51.6c18.9 0 35.8 6.5 49.1 19.4l36.7-36.7C194.4 13.3 165 0 130 0 80.8 0 35.6 30.1 13.9 70.8l43 33.8C67.2 74.5 96 51.6 130 51.6z"/>
</svg>
